<?xml version="1.0" encoding="UTF-8"?>
<svg xmlns="http://www.w3.org/2000/svg" xmlns:xlink="http://www.w3.org/1999/xlink" width="122.298" height="122.297" viewBox="0 0 122.298 122.297">
  <defs>
    <clipPath id="a">
      <rect width="122.298" height="122.298" transform="translate(0)" fill="blue"></rect>
    </clipPath>
  </defs>
  <g transform="translate(0 0)" clip-path="url(#a)">
    <path d="M111.777,69.985,122,70.8a61.078,61.078,0,0,1-3.335,12.582l-9.207-4.629a50.694,50.694,0,0,0,2.322-8.767M98.745,110.013l-7.227-7.381a50.87,50.87,0,0,1-7.953,4.772l3.422,9.713a61.018,61.018,0,0,0,11.759-7.1m6.271-22.039a51.613,51.613,0,0,1-5.877,7.815l7.181,7.329a61.569,61.569,0,0,0,7.872-10.526l-9.176-4.619M0,61.377a61.206,61.206,0,0,0,77.355,59.208l-3.4-9.687A51.122,51.122,0,1,1,61.4,10.229,50.726,50.726,0,0,1,91.876,20.4L81.391,30.883l35.88,6.925-6.93-35.87L99.17,13.1A61.293,61.293,0,0,0,0,61.377M121.593,49.311H110.974a51.976,51.976,0,0,1,1.473,10.47l10.306.823a62.114,62.114,0,0,0-1.161-11.293M75.534,76.721V69.463H62.267V62.84L76.189,44.155h6.588V63.024H86.95v6.439H82.782v7.258Zm0-13.7V54.349l-6.46,8.669ZM35.8,76.721c0-4.915,1.407-8.741,6.312-12.373,5.775-4.276,10.178-5.959,10.178-9.917a3.878,3.878,0,0,0-4.112-4.245c-3.529,0-4.373,3.7-4.373,7.217H36.54C36.233,48.288,41.4,43.526,48.5,43.526c6.583,0,11.355,4.378,11.355,10.414a10.28,10.28,0,0,1-2.946,7.514c-3.176,3.35-7.938,5.038-11.063,8.6H60.032v6.665H35.8" transform="translate(-0.228 -0.228)" fill="blue"></path>
  </g>
</svg>
