<?xml version="1.0" encoding="UTF-8"?>
<svg xmlns="http://www.w3.org/2000/svg" width="63.176" height="58.624" viewBox="0 0 63.176 58.624">
  <g transform="translate(-0.085 -0.025)">
    <g transform="translate(0 0)">
      <path d="M55.624,44.864H14.656A14.141,14.141,0,0,1,2.1,37.958a20.313,20.313,0,0,1-2.42-5.8A21.566,21.566,0,0,1-1,26.932,19.832,19.832,0,0,1,0,20.75a17.67,17.67,0,0,1,3.188-5.787C5.46,12.243,9.688,9,16.932,9A37.393,37.393,0,0,1,29.76,10.934a26.757,26.757,0,0,1,7.253,4.013q.164-.106.333-.2a8.892,8.892,0,0,1,4.665-1.19,8.82,8.82,0,0,1,6.555,2.691A9.241,9.241,0,0,1,50.794,22.3c.021.108.3,1.161,3.169,3.867a71.48,71.48,0,0,0,5.631,4.68,6.554,6.554,0,0,1,2.581,5.21v2.251A6.559,6.559,0,0,1,55.624,44.864ZM16.932,13a15.356,15.356,0,0,0-6.43,1.287,11.988,11.988,0,0,0-4.244,3.24A14.845,14.845,0,0,0,3,26.932a17.811,17.811,0,0,0,2.5,8.907,10.187,10.187,0,0,0,9.159,5.025H55.624a2.555,2.555,0,0,0,2.552-2.552V36.061a2.534,2.534,0,0,0-.991-2.018,74.23,74.23,0,0,1-6.14-5.127c-2.89-2.753-4.2-4.751-4.248-6.481a5.462,5.462,0,0,0-1.191-3.5,4.892,4.892,0,0,0-3.677-1.382,4.5,4.5,0,0,0-4.25,2.478,4.218,4.218,0,0,0,1.07,5.412,2,2,0,0,1-2.668,2.98,8.539,8.539,0,0,1-2.732-4.393,8.584,8.584,0,0,1,.7-5.673q.108-.234.23-.46a22.688,22.688,0,0,0-5.881-3.2A33.528,33.528,0,0,0,16.932,13Z" transform="translate(1.085 13.786)" fill="#fff"></path>
      <path d="M23.552,21.276A2.276,2.276,0,1,1,21.276,19a2.277,2.277,0,0,1,2.276,2.276" transform="translate(24.053 23.993)" fill="#fff"></path>
      <path d="M1,41.692a2,2,0,0,1-2-2c0-7.006,1.447-12.84,4.3-17.339a22.87,22.87,0,0,1,13.04-9.607c4.775-1.476,5.418-3.314,5.418-4.917a4.828,4.828,0,0,0-8.047-3.6,2,2,0,1,1-2.667-2.981A8.828,8.828,0,0,1,25.76,7.828a7.559,7.559,0,0,1-2.643,5.878,14.964,14.964,0,0,1-5.594,2.86,21.329,21.329,0,0,0-6.368,3.127,17.7,17.7,0,0,0-4.475,4.8C4.238,28.344,3,33.457,3,39.692A2,2,0,0,1,1,41.692Z" transform="translate(1.085 1.026)" fill="#fff"></path>
    </g>
  </g>
</svg>
