<?xml version="1.0" encoding="UTF-8"?>
<svg xmlns="http://www.w3.org/2000/svg" width="63.175" height="65.853" viewBox="0 0 63.175 65.853">
  <g transform="translate(0.127 -0.327)">
    <g transform="translate(0 0)">
      <path d="M5.207,7.207a1.994,1.994,0,0,1-1.414-.586L-1.414,1.414a2,2,0,0,1,0-2.828,2,2,0,0,1,2.828,0L6.622,3.793A2,2,0,0,1,5.207,7.207Z" transform="translate(22.357 2.327)" fill="#fff"></path>
      <path d="M0,7.207a1.994,1.994,0,0,1-1.414-.586,2,2,0,0,1,0-2.828L3.793-1.414a2,2,0,0,1,2.828,0,2,2,0,0,1,0,2.828L1.414,6.622A1.994,1.994,0,0,1,0,7.207Z" transform="translate(35.357 2.327)" fill="#fff"></path>
      <path d="M7-2A9.228,9.228,0,0,1,13.311.438a8.176,8.176,0,0,1,0,12.124A9.228,9.228,0,0,1,7,15,9.228,9.228,0,0,1,.689,12.562,8.176,8.176,0,0,1,.689.438,9.228,9.228,0,0,1,7-2ZM7,11a4.775,4.775,0,0,0,5-4.5A4.775,4.775,0,0,0,7,2,4.775,4.775,0,0,0,2,6.5,4.775,4.775,0,0,0,7,11Z" transform="translate(23.915 7.179)" fill="#fff"></path>
      <path d="M15.577,21.674a1.991,1.991,0,0,1-1.107-.336L8.443,17.321a2,2,0,0,1-.891-1.664V7.381L3.586,3.415A2,2,0,0,1,6.414.586l4.552,4.552a2,2,0,0,1,.586,1.414v8.033l5.136,3.423a2,2,0,0,1-1.111,3.664Z" transform="translate(5.977 2.603)" fill="#fff"></path>
      <path d="M11.961,5.512a2,2,0,0,1,1.665.892,5.043,5.043,0,0,0,4.2,2.107,5.035,5.035,0,0,0,4.2-2.106,2,2,0,0,1,3.551.437,20.341,20.341,0,0,1,1.078,6.537c0,7.425-3.878,13.242-8.828,13.242S9,20.805,9,13.38a20.4,20.4,0,0,1,1.075-6.535,2,2,0,0,1,1.886-1.333Zm5.867,17.11c1.082,0,2.219-.85,3.119-2.331a13.708,13.708,0,0,0,1.709-6.911,16.718,16.718,0,0,0-.139-2.11q-.163.095-.331.182a9.5,9.5,0,0,1-8.716,0q-.168-.088-.331-.182A16.745,16.745,0,0,0,13,13.38a13.708,13.708,0,0,0,1.709,6.911C15.609,21.772,16.746,22.622,17.828,22.622Z" transform="translate(13.632 10.636)" fill="#fff"></path>
      <path d="M14.062,12.174a2,2,0,0,1,1.8,1.121C16.79,15.2,18,16.332,19.1,16.332s2.315-1.136,3.248-3.039a2,2,0,0,1,3.315-.421A18.078,18.078,0,0,1,29,19.2a27.938,27.938,0,0,1,1.2,8.233A20.661,20.661,0,0,1,28.629,35.5,19.869,19.869,0,0,1,25.151,41,19.069,19.069,0,0,1,20,45.155a2,2,0,0,1-1.789,0A19.069,19.069,0,0,1,13.057,41a19.869,19.869,0,0,1-3.478-5.5A20.661,20.661,0,0,1,8,27.436,27.929,27.929,0,0,1,9.2,19.2a18.067,18.067,0,0,1,3.34-6.331A2,2,0,0,1,14.062,12.174ZM19.1,41.028a16.589,16.589,0,0,0,3.162-2.807,15.931,15.931,0,0,0,3.943-10.785A23.893,23.893,0,0,0,25.187,20.4a17.15,17.15,0,0,0-1.04-2.594,9.014,9.014,0,0,1-.95.934A6.338,6.338,0,0,1,19.1,20.332a6.336,6.336,0,0,1-4.093-1.595,9.006,9.006,0,0,1-.949-.933,17.137,17.137,0,0,0-1.04,2.594A23.883,23.883,0,0,0,12,27.436a16.685,16.685,0,0,0,1.266,6.513,15.878,15.878,0,0,0,2.781,4.39A16.563,16.563,0,0,0,19.1,41.028Z" transform="translate(12.357 18.137)" fill="#fff"></path>
      <path d="M24.021,6.891A2,2,0,0,1,26,9.184a21.85,21.85,0,0,0-.24,3.193,19.808,19.808,0,0,0,.676,5.226,2,2,0,0,1-.579,2c-1.574,1.441-3.244,2.856-4.963,4.206C13.133,29.906,7.749,33.9,3.782,33.9a4.689,4.689,0,0,1-3.74-1.7A4.459,4.459,0,0,1-.971,28.806c.22-2.05,1.686-4.273,4.753-7.206,2.459-2.352,5.663-4.9,9.291-7.75a75.652,75.652,0,0,1,9.986-6.712A2,2,0,0,1,24.021,6.891Zm-1.74,10.553a24.2,24.2,0,0,1-.521-4.88c-2.018,1.289-4.123,2.788-6.218,4.432-3.544,2.782-6.667,5.267-9,7.494-2.939,2.812-3.48,4.178-3.541,4.743a.469.469,0,0,0,.118.414.713.713,0,0,0,.658.252c.784,0,2.394-.438,5.607-2.526,2.631-1.71,5.775-4.148,9.035-6.708C19.748,19.626,21.042,18.545,22.282,17.444Z" transform="translate(0.873 11.396)" fill="#fff"></path>
      <path d="M0,4A2,2,0,0,1-2,2V0A2,2,0,0,1,0-2,2,2,0,0,1,2,0V2A2,2,0,0,1,0,4Z" transform="translate(31.915 62.179)" fill="#fff"></path>
      <path d="M7,38.025a2,2,0,0,1-2-2v-9.1a2,2,0,0,1,.45-1.263L12.6,16.88a2,2,0,0,1,3.1,2.527L9,27.633v8.392A2,2,0,0,1,7,38.025Z" transform="translate(8.529 23.201)" fill="#fff"></path>
      <path d="M18.354,21.674a2,2,0,0,1-1.111-3.664l5.136-3.423V6.552a2,2,0,0,1,.586-1.414L27.516.586a2,2,0,0,1,2.828,2.828L26.379,7.381v8.276a2,2,0,0,1-.891,1.664l-6.027,4.017A1.991,1.991,0,0,1,18.354,21.674Z" transform="translate(23.014 2.603)" fill="#fff"></path>
      <path d="M25.01,38.025a2,2,0,0,1-2-2V27.633l-6.7-8.227a2,2,0,0,1,3.1-2.527l7.153,8.778a2,2,0,0,1,.45,1.263v9.1A2,2,0,0,1,25.01,38.025Z" transform="translate(22.382 23.201)" fill="#fff"></path>
      <path d="M17.157,6.891a2,2,0,0,1,.962.247,75.65,75.65,0,0,1,9.986,6.712c3.628,2.849,6.832,5.4,9.291,7.75,3.067,2.933,4.533,5.156,4.753,7.206A4.459,4.459,0,0,1,41.137,32.2a4.689,4.689,0,0,1-3.74,1.7c-3.967,0-9.351-3.994-17.112-10.087-1.719-1.35-3.389-2.765-4.963-4.206a2,2,0,0,1-.579-2,19.808,19.808,0,0,0,.676-5.226,21.85,21.85,0,0,0-.24-3.193,2,2,0,0,1,1.979-2.293ZM37.4,29.9a.713.713,0,0,0,.658-.252.469.469,0,0,0,.118-.414c-.061-.565-.6-1.931-3.541-4.743-2.329-2.228-5.452-4.712-9-7.495-2.1-1.644-4.2-3.143-6.218-4.432a24.2,24.2,0,0,1-.521,4.88c1.24,1.1,2.534,2.182,3.859,3.222,3.259,2.559,6.4,5,9.035,6.707C35,29.462,36.612,29.9,37.4,29.9Z" transform="translate(20.87 11.396)" fill="#fff"></path>
      <path d="M17.955,2H0A2,2,0,0,1-2,0,2,2,0,0,1,0-2H17.955a2,2,0,0,1,2,2A2,2,0,0,1,17.955,2Z" transform="translate(22.483 47.847)" fill="#fff"></path>
    </g>
  </g>
</svg>
