<?xml version="1.0" encoding="UTF-8"?>
<!-- Generator: Adobe Illustrator 27.2.0, SVG Export Plug-In . SVG Version: 6.00 Build 0)  -->
<svg xmlns="http://www.w3.org/2000/svg" xmlns:xlink="http://www.w3.org/1999/xlink" version="1.1" id="Ebene_1" x="0px" y="0px" viewBox="0 0 63.2 65.9" style="enable-background:new 0 0 63.2 65.9;" xml:space="preserve">
<style type="text/css">
	.st0{fill:#FFFFFF;}
</style>
<g transform="translate(0.127 -0.327)">
	<g transform="translate(0 0)">
		<path class="st0" d="M27.6,9.6c-0.5,0-1-0.2-1.4-0.6L21,3.8c-0.8-0.8-0.8-2,0-2.8c0.8-0.8,2-0.8,2.8,0L29,6.2c0.8,0.8,0.8,2,0,2.8    C28.6,9.4,28.1,9.6,27.6,9.6z"></path>
		<path class="st0" d="M35.3,9.6c-0.5,0-1-0.2-1.4-0.6c-0.8-0.8-0.8-2,0-2.8L39.1,1c0.8-0.8,2-0.8,2.8,0s0.8,2,0,2.8L36.8,9    C36.4,9.4,35.9,9.6,35.3,9.6z"></path>
		<path class="st0" d="M30.9,5.3c2.3,0,4.6,0.9,6.3,2.4c3.3,3,3.6,8.2,0.6,11.5c-0.2,0.2-0.4,0.4-0.6,0.6c-1.7,1.6-4,2.4-6.3,2.4    s-4.6-0.9-6.3-2.4c-3.3-3-3.6-8.2-0.6-11.5c0.2-0.2,0.4-0.4,0.6-0.6C26.3,6.1,28.6,5.2,30.9,5.3z M30.9,18.2    c2.6,0.1,4.8-1.9,5-4.5c-0.1-2.6-2.4-4.6-5-4.5c-2.6-0.1-4.8,1.9-5,4.5C26.1,16.3,28.3,18.3,30.9,18.2z"></path>
		<path class="st0" d="M21.6,24.3c-0.4,0-0.8-0.1-1.1-0.3l-6-4c-0.6-0.4-0.9-1-0.9-1.7V10l-4-4c-0.8-0.8-0.8-2,0-2.8s2-0.8,2.8,0    L17,7.8c0.4,0.4,0.6,0.9,0.6,1.4v8l5.1,3.4c0.9,0.6,1.2,1.8,0.6,2.8C22.9,24,22.2,24.3,21.6,24.3L21.6,24.3z"></path>
		<path class="st0" d="M25.6,16.2c0.7,0,1.3,0.3,1.7,0.9c1,1.3,2.5,2.1,4.2,2.1c1.7,0,3.2-0.8,4.2-2.1c0.6-0.9,1.8-1.2,2.8-0.6    c0.4,0.2,0.6,0.6,0.8,1c0.7,2.1,1.1,4.3,1.1,6.5c0,7.4-3.9,13.2-8.8,13.2s-8.8-5.8-8.8-13.2c0-2.2,0.4-4.4,1.1-6.5    C24,16.7,24.8,16.2,25.6,16.2z M31.5,33.3c1.1,0,2.2-0.8,3.1-2.3c1.2-2.1,1.8-4.5,1.7-6.9c0-0.7,0-1.4-0.1-2.1    c-0.1,0.1-0.2,0.1-0.3,0.2c-2.7,1.4-6,1.4-8.7,0c-0.1-0.1-0.2-0.1-0.3-0.2c-0.1,0.7-0.1,1.4-0.1,2.1c0,2.4,0.5,4.8,1.7,6.9    C29.2,32.4,30.4,33.3,31.5,33.3z"></path>
		<path class="st0" d="M26.4,30.3c0.8,0,1.5,0.4,1.8,1.1c0.9,1.9,2.1,3,3.2,3s2.3-1.1,3.2-3c0.5-1,1.7-1.4,2.7-0.9    c0.2,0.1,0.5,0.3,0.6,0.5c1.5,1.9,2.6,4,3.3,6.3c0.8,2.7,1.2,5.4,1.2,8.2s-0.5,5.5-1.6,8c-0.8,2-2,3.9-3.5,5.5    c-1.5,1.7-3.2,3.1-5.1,4.1c-0.6,0.3-1.2,0.3-1.8,0c-1.9-1.1-3.7-2.5-5.1-4.1c-1.4-1.6-2.6-3.5-3.5-5.5c-1.1-2.5-1.6-5.3-1.6-8    c0-2.8,0.4-5.6,1.2-8.2c0.7-2.3,1.8-4.5,3.3-6.3C25.3,30.6,25.9,30.3,26.4,30.3z M31.5,59.1c1.2-0.8,2.2-1.7,3.2-2.8    c2.6-3,4-6.8,3.9-10.8c0-2.4-0.3-4.7-1-7c-0.3-0.9-0.6-1.8-1-2.6c-0.3,0.3-0.6,0.6-0.9,0.9c-1.1,1-2.6,1.6-4.1,1.6    c-1.5,0-3-0.6-4.1-1.6c-0.3-0.3-0.7-0.6-0.9-0.9c-0.4,0.8-0.8,1.7-1,2.6c-0.7,2.3-1,4.6-1,7c0,2.2,0.4,4.4,1.3,6.5    c0.7,1.6,1.6,3.1,2.8,4.4C29.3,57.4,30.3,58.3,31.5,59.1z"></path>
		<path class="st0" d="M24.9,18.3c1.1,0,2,0.9,2,2c0,0.1,0,0.2,0,0.3c-0.2,1.1-0.2,2.1-0.2,3.2c0,1.8,0.2,3.5,0.7,5.2    c0.2,0.7,0,1.5-0.6,2c-1.6,1.4-3.2,2.8-4.9,4.2C14.1,41.3,8.7,45.3,4.7,45.3c-1.4,0-2.8-0.6-3.7-1.7c-0.8-0.9-1.2-2.2-1-3.4    c0.2-2,1.7-4.3,4.7-7.2c2.5-2.3,5.6-4.9,9.3-7.7c3.1-2.5,6.5-4.7,10-6.7C24.2,18.4,24.6,18.3,24.9,18.3z M23.2,28.9    c-0.3-1.6-0.5-3.2-0.5-4.9c-2,1.3-4.1,2.8-6.2,4.4c-3.5,2.8-6.6,5.3-9,7.5C4.6,38.7,4,40,4,40.6c0,0.1,0,0.3,0.1,0.4    c0.2,0.2,0.4,0.3,0.7,0.3c0.8,0,2.4-0.4,5.6-2.5c2.6-1.7,5.8-4.1,9-6.7C20.7,31,21.9,30,23.2,28.9L23.2,28.9z"></path>
		<path class="st0" d="M31.9,66.1c-1.1,0-2-0.9-2-2v-2c0-1.1,0.9-2,2-2c1.1,0,2,0.9,2,2v2C33.9,65.2,33,66.1,31.9,66.1z"></path>
		<path class="st0" d="M15.6,61.1c-1.1,0-2-0.9-2-2V50c0-0.5,0.2-0.9,0.4-1.3l7.1-8.8c0.7-0.8,2-0.9,2.8-0.2s0.9,1.9,0.3,2.8    l-6.7,8.2v8.4C17.6,60.3,16.7,61.1,15.6,61.1z"></path>
		<path class="st0" d="M41.3,24.3c-1.1,0-2-0.9-2-2c0-0.7,0.3-1.3,0.9-1.7l5.1-3.4v-8c0-0.5,0.2-1,0.6-1.4l4.5-4.5    c0.8-0.8,2.1-0.7,2.8,0c0.7,0.8,0.7,2,0,2.8l-4,4v8.3c0,0.7-0.3,1.3-0.9,1.7l-6,4C42.1,24.2,41.7,24.3,41.3,24.3z"></path>
		<path class="st0" d="M47.3,61.1c-1.1,0-2-0.9-2-2v-8.4l-6.7-8.2c-0.7-0.9-0.5-2.1,0.3-2.8s2.1-0.5,2.8,0.3l7.1,8.8    c0.3,0.4,0.4,0.8,0.4,1.3v9.1C49.3,60.2,48.5,61.1,47.3,61.1C47.4,61.1,47.3,61.1,47.3,61.1z"></path>
		<path class="st0" d="M38,18.3c0.3,0,0.7,0.1,1,0.2c3.5,2,6.8,4.2,10,6.7c3.6,2.8,6.8,5.4,9.3,7.7c3.1,2.9,4.5,5.1,4.7,7.2    c0.1,1.2-0.2,2.4-1,3.4c-0.9,1.1-2.3,1.7-3.7,1.7c-4,0-9.3-4-17.1-10.1c-1.7-1.3-3.4-2.8-4.9-4.2c-0.6-0.5-0.8-1.3-0.6-2    c0.5-1.7,0.7-3.5,0.7-5.2c0-1.1-0.1-2.1-0.2-3.2C36,19.4,36.8,18.4,38,18.3C37.8,18.3,37.9,18.3,38,18.3L38,18.3z M58.2,41.3    c0.2,0,0.5-0.1,0.7-0.3c0.1-0.1,0.1-0.3,0.1-0.4c-0.1-0.6-0.6-1.9-3.5-4.7c-2.3-2.2-5.4-4.7-9-7.5c-2.1-1.6-4.2-3.1-6.2-4.4    c0,1.6-0.2,3.3-0.5,4.9c1.2,1.1,2.5,2.2,3.8,3.2c3.2,2.6,6.4,5,9,6.7C55.8,40.8,57.4,41.3,58.2,41.3z"></path>
		<path class="st0" d="M40.4,49.8H22.5c-1.1,0-2-0.9-2-2s0.9-2,2-2h17.9c1.1,0,2,0.9,2,2S41.5,49.8,40.4,49.8z"></path>
	</g>
</g>
</svg>
