<?xml version="1.0" encoding="UTF-8"?>
<svg xmlns="http://www.w3.org/2000/svg" xmlns:xlink="http://www.w3.org/1999/xlink" id="Gruppe_449" data-name="Gruppe 449" width="216.958" height="76.268" viewBox="0 0 216.958 76.268">
  <defs>
    <clipPath id="clip-path">
      <rect id="Rechteck_136" data-name="Rechteck 136" width="216.958" height="76.268" fill="#fff"></rect>
    </clipPath>
  </defs>
  <g id="Gruppe_442" data-name="Gruppe 442" clip-path="url(#clip-path)">
    <path id="Pfad_640" data-name="Pfad 640" d="M7.141,106.595a3.7,3.7,0,0,0-.937-.54,6.712,6.712,0,0,0-1.228-.36,5.661,5.661,0,0,1-.657-.174,2.417,2.417,0,0,1-.509-.229,1,1,0,0,1-.322-.3.716.716,0,0,1-.112-.4.731.731,0,0,1,.168-.478,1.019,1.019,0,0,1,.465-.31,2.116,2.116,0,0,1,.707-.106,2.28,2.28,0,0,1,.726.118,2.23,2.23,0,0,1,.658.354,3.033,3.033,0,0,1,.564.583l1.179-1.141a3,3,0,0,0-1.774-1.34,4.98,4.98,0,0,0-1.39-.174,3.964,3.964,0,0,0-1.222.187,3.208,3.208,0,0,0-1.018.534,2.516,2.516,0,0,0-.689.825,2.213,2.213,0,0,0-.248,1.036,2.7,2.7,0,0,0,.168.98,2.172,2.172,0,0,0,.515.776,2.88,2.88,0,0,0,.869.571,6.9,6.9,0,0,0,1.216.39,4.7,4.7,0,0,1,.6.13,3.469,3.469,0,0,1,.5.187,1.9,1.9,0,0,1,.385.235.943.943,0,0,1,.248.3.785.785,0,0,1,.087.366.672.672,0,0,1-.173.465,1.183,1.183,0,0,1-.478.3,1.989,1.989,0,0,1-.689.112,2.859,2.859,0,0,1-1.309-.3,3.6,3.6,0,0,1-1.209-1.148l-1.166,1.328a4.555,4.555,0,0,0,.925.931,3.755,3.755,0,0,0,1.178.583,5.136,5.136,0,0,0,1.47.2,4.275,4.275,0,0,0,1.737-.328,2.682,2.682,0,0,0,1.166-.95,2.6,2.6,0,0,0,.422-1.5,2.14,2.14,0,0,0-.211-.962,2.207,2.207,0,0,0-.6-.745" transform="translate(-0.36 -34.812)" fill="#fff"></path>
    <path id="Pfad_641" data-name="Pfad 641" d="M19.2,104.652a2.512,2.512,0,0,1,1.812-.751,2.363,2.363,0,0,1,.751.118,2.826,2.826,0,0,1,.677.335,3.723,3.723,0,0,1,.608.515l1.166-1.29a3.584,3.584,0,0,0-.863-.77,4.029,4.029,0,0,0-1.1-.49,4.532,4.532,0,0,0-1.222-.168,4.654,4.654,0,0,0-1.775.335,4.354,4.354,0,0,0-1.427.937,4.241,4.241,0,0,0-.943,1.415,4.591,4.591,0,0,0-.335,1.768,4.926,4.926,0,0,0,.323,1.806,4.2,4.2,0,0,0,.912,1.426,4.106,4.106,0,0,0,1.39.931,4.586,4.586,0,0,0,1.756.329,5.15,5.15,0,0,0,1.253-.156,4.7,4.7,0,0,0,1.123-.428,3.11,3.11,0,0,0,.813-.608l-.918-1.452a2.912,2.912,0,0,1-.565.459,2.771,2.771,0,0,1-.689.31,2.639,2.639,0,0,1-.769.112,3.076,3.076,0,0,1-1.11-.192,2.474,2.474,0,0,1-.863-.546,2.432,2.432,0,0,1-.558-.857,3.028,3.028,0,0,1-.2-1.122,2.923,2.923,0,0,1,.2-1.111,2.618,2.618,0,0,1,.552-.856" transform="translate(-5.642 -34.831)" fill="#fff"></path>
    <path id="Pfad_642" data-name="Pfad 642" d="M39.091,105.872H35.48V102.36H33.619v8.686H35.48v-3.487h3.611v3.487h1.861V102.36H39.091Z" transform="translate(-11.463 -34.902)" fill="#fff"></path>
    <path id="Pfad_643" data-name="Pfad 643" d="M58.035,100.31a.947.947,0,0,0,.745-.292,1,1,0,0,0,.26-.688.989.989,0,0,0-.254-.72,1,1,0,0,0-.751-.26.959.959,0,0,0-.745.285.971.971,0,0,0,.745,1.675" transform="translate(-19.446 -33.534)" fill="#fff"></path>
    <path id="Pfad_644" data-name="Pfad 644" d="M53.68,100.31a.947.947,0,0,0,.745-.292,1,1,0,0,0,.26-.688.989.989,0,0,0-.254-.72,1,1,0,0,0-.751-.26.974.974,0,0,0-.757.285,1.091,1.091,0,0,0-.007,1.408,1.006,1.006,0,0,0,.763.267" transform="translate(-17.956 -33.534)" fill="#fff"></path>
    <path id="Pfad_645" data-name="Pfad 645" d="M53.362,102.36l-3.412,8.686H51.8l.687-1.824h3.333l.683,1.824h1.911l-3.388-8.686Zm-.314,5.373.5-1.328q.1-.285.211-.583t.211-.614q.1-.314.19-.616c.061.2.126.4.194.61q.112.348.217.658t.18.509l.51,1.365Z" transform="translate(-17.032 -34.902)" fill="#fff"></path>
    <path id="Pfad_646" data-name="Pfad 646" d="M74.618,103.569a3.933,3.933,0,0,0-1.34-.893,4.536,4.536,0,0,0-1.731-.316H67.986v8.686h3.561a4.594,4.594,0,0,0,1.737-.316,3.853,3.853,0,0,0,1.34-.894,3.91,3.91,0,0,0,.856-1.377,5.331,5.331,0,0,0,0-3.518,3.878,3.878,0,0,0-.862-1.371m-.887,4.238a2.162,2.162,0,0,1-1.241,1.371,2.515,2.515,0,0,1-1.005.192H69.847v-5.336h1.638a2.515,2.515,0,0,1,1.005.192,2.2,2.2,0,0,1,.763.54,2.289,2.289,0,0,1,.478.838,3.508,3.508,0,0,1,.161,1.1,3.56,3.56,0,0,1-.161,1.1" transform="translate(-23.181 -34.902)" fill="#fff"></path>
    <path id="Pfad_647" data-name="Pfad 647" d="M87.6,102.36H85.734v8.686h5.794v-1.675H87.6Z" transform="translate(-29.233 -34.902)" fill="#fff"></path>
    <path id="Pfad_648" data-name="Pfad 648" d="M99.936,103.961h1.452v5.484H99.936v1.6H104.7v-1.6h-1.452v-5.484H104.7v-1.6H99.936Z" transform="translate(-34.075 -34.902)" fill="#fff"></path>
    <path id="Pfad_649" data-name="Pfad 649" d="M119.326,104.73q0,.534.013.987t.031.856c.012.269.029.53.049.782s.043.5.069.745c.006.063.015.13.022.194l-4.39-5.933h-1.663v8.686h1.824v-3.127q0-.248-.006-.471t-.019-.472c-.008-.165-.023-.36-.043-.583s-.045-.486-.074-.788c-.011-.117-.024-.253-.037-.389l4.361,5.83h1.688V102.36h-1.824Z" transform="translate(-38.686 -34.902)" fill="#fff"></path>
    <path id="Pfad_650" data-name="Pfad 650" d="M139.576,106.57c-.013-.132-.023-.244-.032-.335h-4.02v1.551h2.228a1.447,1.447,0,0,1-.149.608,1.648,1.648,0,0,1-.435.539,2.015,2.015,0,0,1-.645.354,2.426,2.426,0,0,1-.788.125,2.747,2.747,0,0,1-1.092-.217,2.78,2.78,0,0,1-.886-.6,2.749,2.749,0,0,1-.6-.894,2.79,2.79,0,0,1-.217-1.1,2.932,2.932,0,0,1,.2-1.1,2.6,2.6,0,0,1,.577-.881,2.73,2.73,0,0,1,.863-.583,2.687,2.687,0,0,1,1.073-.212,2.757,2.757,0,0,1,.8.118,3.039,3.039,0,0,1,.739.335,4.122,4.122,0,0,1,.67.527l1.155-1.216a3.5,3.5,0,0,0-.869-.745,4.725,4.725,0,0,0-2.481-.695,4.97,4.97,0,0,0-1.849.335,4.487,4.487,0,0,0-1.47.937,4.177,4.177,0,0,0-.967,1.414,4.515,4.515,0,0,0-.342,1.768,4.741,4.741,0,0,0,.329,1.775,4.223,4.223,0,0,0,.937,1.427,4.318,4.318,0,0,0,1.447.949,4.825,4.825,0,0,0,1.842.341,4.428,4.428,0,0,0,1.588-.279,3.822,3.822,0,0,0,1.273-.788,3.619,3.619,0,0,0,.844-1.216,3.906,3.906,0,0,0,.3-1.551c0-.074,0-.175-.007-.3s-.013-.258-.024-.391" transform="translate(-44.682 -34.831)" fill="#fff"></path>
    <path id="Pfad_651" data-name="Pfad 651" d="M154.726,106.595a3.7,3.7,0,0,0-.937-.54,6.713,6.713,0,0,0-1.228-.36,5.673,5.673,0,0,1-.658-.174,2.442,2.442,0,0,1-.509-.229,1,1,0,0,1-.322-.3.721.721,0,0,1-.111-.4.733.733,0,0,1,.167-.478,1.025,1.025,0,0,1,.466-.31,2.116,2.116,0,0,1,.707-.106,2.287,2.287,0,0,1,.726.118,2.223,2.223,0,0,1,.657.354,3.035,3.035,0,0,1,.565.583l1.178-1.141a3,3,0,0,0-1.774-1.34,4.977,4.977,0,0,0-1.39-.174,3.96,3.96,0,0,0-1.222.187,3.208,3.208,0,0,0-1.018.534,2.515,2.515,0,0,0-.689.825,2.206,2.206,0,0,0-.248,1.036,2.712,2.712,0,0,0,.167.98,2.175,2.175,0,0,0,.516.776,2.86,2.86,0,0,0,.868.571,6.9,6.9,0,0,0,1.216.39,4.739,4.739,0,0,1,.6.13,3.519,3.519,0,0,1,.5.187,1.885,1.885,0,0,1,.385.235.937.937,0,0,1,.248.3.792.792,0,0,1,.086.366.67.67,0,0,1-.174.465,1.18,1.18,0,0,1-.477.3,1.99,1.99,0,0,1-.689.112,2.858,2.858,0,0,1-1.309-.3,3.6,3.6,0,0,1-1.21-1.148l-1.166,1.328a4.557,4.557,0,0,0,.925.931,3.748,3.748,0,0,0,1.178.583,5.137,5.137,0,0,0,1.47.2,4.273,4.273,0,0,0,1.737-.328,2.682,2.682,0,0,0,1.166-.95,2.6,2.6,0,0,0,.422-1.5,2.157,2.157,0,0,0-.21-.962,2.225,2.225,0,0,0-.6-.745" transform="translate(-50.682 -34.812)" fill="#fff"></path>
    <path id="Pfad_652" data-name="Pfad 652" d="M171.084,106.629a2.69,2.69,0,0,0-.677-.337,1.8,1.8,0,0,0,.746-.544,2.012,2.012,0,0,0,.372-1.241,2.092,2.092,0,0,0-.31-1.154,1.945,1.945,0,0,0-.912-.738,3.771,3.771,0,0,0-1.471-.254h-3.772v8.686h3.9a4.254,4.254,0,0,0,1.235-.167,2.916,2.916,0,0,0,.962-.49,2.041,2.041,0,0,0,.619-.813,2.845,2.845,0,0,0,.212-1.136,2.247,2.247,0,0,0-.236-1.043,2.162,2.162,0,0,0-.664-.769m-4.238-2.655h1.65a1.394,1.394,0,0,1,.906.248.87.87,0,0,1,.3.708.92.92,0,0,1-.13.5.909.909,0,0,1-.378.335,1.285,1.285,0,0,1-.583.124h-1.762Zm3.14,4.976a.888.888,0,0,1-.428.366,1.725,1.725,0,0,1-.676.118h-2.035v-2.072h1.973a1.857,1.857,0,0,1,.7.118,1.007,1.007,0,0,1,.453.341.911.911,0,0,1,.161.546,1.109,1.109,0,0,1-.148.583" transform="translate(-56.28 -34.902)" fill="#fff"></path>
    <path id="Pfad_653" data-name="Pfad 653" d="M183.351,107.41H186.8v-1.588h-3.449V104H187.4V102.36h-5.869v8.686h5.956v-1.638h-4.132Z" transform="translate(-61.895 -34.902)" fill="#fff"></path>
    <path id="Pfad_654" data-name="Pfad 654" d="M204.487,102.36h-2.258l-3.536,3.567V102.36h-1.861v8.686h1.861v-3.017l.859-.841,2.913,3.858h2.208l-3.9-5.055Z" transform="translate(-67.114 -34.902)" fill="#fff"></path>
    <path id="Pfad_655" data-name="Pfad 655" d="M221.3,100.31a.947.947,0,0,0,.745-.292,1,1,0,0,0,.26-.688.989.989,0,0,0-.254-.72,1,1,0,0,0-.751-.26.958.958,0,0,0-.745.285.971.971,0,0,0,.745,1.675" transform="translate(-75.114 -33.534)" fill="#fff"></path>
    <path id="Pfad_656" data-name="Pfad 656" d="M216.942,100.31a.945.945,0,0,0,.744-.292,1,1,0,0,0,.26-.688.986.986,0,0,0-.254-.72,1,1,0,0,0-.75-.26.975.975,0,0,0-.757.285,1.091,1.091,0,0,0-.007,1.408,1.008,1.008,0,0,0,.764.267" transform="translate(-73.624 -33.534)" fill="#fff"></path>
    <path id="Pfad_657" data-name="Pfad 657" d="M216.625,102.36l-3.412,8.686h1.849l.687-1.824h3.333l.682,1.824h1.911l-3.387-8.686Zm-.314,5.373.5-1.328q.1-.285.21-.583t.212-.614q.1-.314.191-.616c.061.2.125.4.193.61.075.232.147.451.217.658s.13.376.18.509l.511,1.365Z" transform="translate(-72.699 -34.902)" fill="#fff"></path>
    <path id="Pfad_658" data-name="Pfad 658" d="M235.556,106.6l-2.606-4.241h-1.7v8.686h1.824v-2.978q0-1.2-.056-2.079c-.013-.193-.045-.375-.064-.565l2.155,3.388h.819l2.2-3.41c-.021.219-.057.436-.071.656q-.054.894-.055,2.01v2.978h1.824V102.36H238.2Z" transform="translate(-78.85 -34.902)" fill="#fff"></path>
    <path id="Pfad_659" data-name="Pfad 659" d="M256.082,102.726a2.706,2.706,0,0,0-1.4-.366h-3.686v8.686h1.861v-3.04h1.825a2.64,2.64,0,0,0,1.4-.378,2.794,2.794,0,0,0,.986-1.023,2.893,2.893,0,0,0,.366-1.452,2.8,2.8,0,0,0-.366-1.427,2.719,2.719,0,0,0-.986-1m-.7,3.034a1.14,1.14,0,0,1-.378.416.95.95,0,0,1-.533.155h-1.638v-2.3h1.638a.977.977,0,0,1,.533.149,1.12,1.12,0,0,1,.378.4,1.147,1.147,0,0,1,.143.583,1.214,1.214,0,0,1-.143.6" transform="translate(-85.582 -34.902)" fill="#fff"></path>
    <path id="Pfad_660" data-name="Pfad 660" d="M267.207,102.36h-.857v8.686h1.861V107.6H271.7V106h-3.488v-1.961h4.008V102.36h-5.013Z" transform="translate(-90.818 -34.902)" fill="#fff"></path>
    <path id="Pfad_661" data-name="Pfad 661" d="M286.361,107.59a1.819,1.819,0,0,1-.9,1.6,1.766,1.766,0,0,1-.925.248,1.675,1.675,0,0,1-.9-.248,1.82,1.82,0,0,1-.639-.663,1.871,1.871,0,0,1-.236-.937v-5.249h-1.874V107.7a3.283,3.283,0,0,0,1.769,2.972,4.22,4.22,0,0,0,3.753,0,3.258,3.258,0,0,0,1.3-1.217,3.342,3.342,0,0,0,.465-1.756v-5.361h-1.812Z" transform="translate(-95.775 -34.895)" fill="#fff"></path>
    <path id="Pfad_662" data-name="Pfad 662" d="M304.439,104.73q0,.534.013.987t.031.856c.013.269.029.53.05.782s.043.5.068.745c.007.063.015.13.022.194l-4.39-5.933H298.57v8.686h1.825v-3.127c0-.165,0-.322-.007-.471s-.011-.306-.019-.472-.022-.36-.043-.583-.046-.486-.074-.788c-.012-.118-.024-.253-.038-.39l4.361,5.831h1.688V102.36h-1.824Z" transform="translate(-101.804 -34.902)" fill="#fff"></path>
    <path id="Pfad_663" data-name="Pfad 663" d="M324.716,106.96c0-.128-.013-.258-.024-.391s-.023-.244-.031-.335h-4.021v1.551h2.228a1.442,1.442,0,0,1-.149.608,1.66,1.66,0,0,1-.435.54,2,2,0,0,1-.645.353,2.429,2.429,0,0,1-.788.125,2.751,2.751,0,0,1-1.093-.217,2.786,2.786,0,0,1-.886-.6,2.755,2.755,0,0,1-.6-.894,2.793,2.793,0,0,1-.217-1.1,2.932,2.932,0,0,1,.2-1.1,2.593,2.593,0,0,1,.577-.881,2.745,2.745,0,0,1,.862-.583,2.69,2.69,0,0,1,1.074-.211,2.738,2.738,0,0,1,.8.118,3.043,3.043,0,0,1,.738.335,4.134,4.134,0,0,1,.671.528l1.154-1.217a3.492,3.492,0,0,0-.869-.744,4.738,4.738,0,0,0-2.483-.7,4.974,4.974,0,0,0-1.848.335,4.5,4.5,0,0,0-1.471.937,4.172,4.172,0,0,0-.968,1.415,4.521,4.521,0,0,0-.341,1.768,4.713,4.713,0,0,0,.329,1.775,4.188,4.188,0,0,0,.937,1.427,4.311,4.311,0,0,0,1.445.95,4.84,4.84,0,0,0,1.843.341,4.428,4.428,0,0,0,1.588-.279,3.806,3.806,0,0,0,1.271-.788,3.6,3.6,0,0,0,.844-1.216,3.891,3.891,0,0,0,.3-1.551c0-.075,0-.176-.007-.3" transform="translate(-107.801 -34.831)" fill="#fff"></path>
    <path id="Pfad_664" data-name="Pfad 664" d="M168.96,15.924H157.547V56.273h28.995V46.418H168.96Z" transform="translate(-53.719 -5.43)" fill="#fff"></path>
    <path id="Pfad_665" data-name="Pfad 665" d="M227.085,40.249h16.083V31.371H227.085V25.32h18.388v-9.4H216.134V56.274h30.205v-9.4H227.085Z" transform="translate(-73.695 -5.43)" fill="#fff"></path>
    <path id="Pfad_666" data-name="Pfad 666" d="M302.484,40.962c.118-.06.245-.1.361-.166a12.822,12.822,0,0,0,5.043-4.87,13.905,13.905,0,0,0,1.818-7.148,12.151,12.151,0,0,0-1.818-6.629,12.746,12.746,0,0,0-5.043-4.553,15.666,15.666,0,0,0-7.32-1.673H276.906V56.273h10.721V25.088h5.88a6.354,6.354,0,0,1,2.8.549,3.847,3.847,0,0,1,1.7,1.555,4.765,4.765,0,0,1,.575,2.392,5.43,5.43,0,0,1-.546,2.507,4.076,4.076,0,0,1-1.557,1.673,4.8,4.8,0,0,1-2.508.6h-3.949l9.959,21.9h11.4Z" transform="translate(-94.417 -5.43)" fill="#fff"></path>
    <path id="Pfad_667" data-name="Pfad 667" d="M13.6,49.561l25.827-20.05L16.573,41.518l1.468-3.978c.385-1.077.741-2.055,1.068-2.941s.623-1.729.894-2.536c.19-.573.372-1.19.554-1.8.178.606.354,1.217.542,1.8q.4,1.27.865,2.595T23,37.54l1.469,3.978h0l2.979,8.068h0l2.469,6.687H41.273L25.305,15.924H16.083L0,56.273H11.124Z" transform="translate(0 -5.43)" fill="#fff"></path>
    <path id="Pfad_668" data-name="Pfad 668" d="M116.426,10.359,91.811,0,67.206,10.359a49.368,49.368,0,0,0,.892,10.6s12.264-6.662,14.13-7.4c15.207-2.888,16.385,2.6,16.206,3.32,1.45.125,5.2.461,6.2.693,1.257.288,5.761,2.811,3.034,8.258-.033-.1-.473-2.831-.721-2.831s-2.789.77-2.924.77c-.109,0-6.217,1.851-8.5,2.545L84.557,51.037a51.511,51.511,0,0,0,7.259,5.392c26.366-16.212,24.61-46.071,24.61-46.071" transform="translate(-22.907)" fill="#fff"></path>
  </g>
</svg>
