<?xml version="1.0" encoding="UTF-8"?>
<svg xmlns="http://www.w3.org/2000/svg" width="63.001" height="63" viewBox="0 0 63.001 63">
  <g transform="translate(-0.999 -1.179)">
    <g transform="translate(0 0)">
      <path d="M46.532,1A8.539,8.539,0,0,1,52.57,15.577L15.579,52.571A8.54,8.54,0,0,1,3.5,40.494L40.495,3.5A8.483,8.483,0,0,1,46.532,1ZM9.539,51.072a4.515,4.515,0,0,0,3.212-1.33L49.742,12.749A4.539,4.539,0,1,0,43.323,6.33L6.329,43.322a4.54,4.54,0,0,0,3.21,7.751Z" transform="translate(4.174 3.879)" fill="#fff"></path>
      <path d="M22,26a2,2,0,0,1-1.475-.649l-22-24a2,2,0,0,1,.123-2.826,2,2,0,0,1,2.826.123l22,24A2,2,0,0,1,22,26Z" transform="translate(6.999 34.179)" fill="#fff"></path>
      <path d="M24,26a1.994,1.994,0,0,1-1.414-.586l-24-24a2,2,0,0,1,0-2.828,2,2,0,0,1,2.828,0l24,24A2,2,0,0,1,24,26Z" transform="translate(15.999 24.179)" fill="#fff"></path>
      <path d="M25,24a1.992,1.992,0,0,1-1.32-.5l-25-22A2,2,0,0,1-1.5-1.321,2,2,0,0,1,1.321-1.5l25,22A2,2,0,0,1,25,24Z" transform="translate(32.999 7.179)" fill="#fff"></path>
      <path d="M24,24a1.993,1.993,0,0,1-1.351-.526l-24-22a2,2,0,0,1-.123-2.826,2,2,0,0,1,2.826-.123l24,22A2,2,0,0,1,24,24Z" transform="translate(24.999 16.179)" fill="#fff"></path>
      <path d="M0,6a1.991,1.991,0,0,1-1.2-.4,2,2,0,0,1-.4-2.8l3-4a2,2,0,0,1,2.8-.4,2,2,0,0,1,.4,2.8l-3,4A2,2,0,0,1,0,6Z" transform="translate(52.999 3.179)" fill="#fff"></path>
      <path d="M0,4a2,2,0,0,1-1.79-1.106A2,2,0,0,1-.894.211l4-2a2,2,0,0,1,2.683.894,2,2,0,0,1-.894,2.683l-4,2A1.992,1.992,0,0,1,0,4Z" transform="translate(57.999 9.179)" fill="#fff"></path>
      <path d="M0,4a2,2,0,0,1-1.79-1.106A2,2,0,0,1-.894.211l4-2a2,2,0,0,1,2.683.894,2,2,0,0,1-.894,2.683l-4,2A1.992,1.992,0,0,1,0,4Z" transform="translate(2.999 53.179)" fill="#fff"></path>
      <path d="M0,6a1.992,1.992,0,0,1-.893-.212,2,2,0,0,1-.894-2.683l2-4a2,2,0,0,1,2.683-.894A2,2,0,0,1,3.789.894l-2,4A2,2,0,0,1,0,6Z" transform="translate(8.999 58.179)" fill="#fff"></path>
    </g>
  </g>
</svg>
