<?xml version="1.0" encoding="UTF-8"?>
<svg xmlns="http://www.w3.org/2000/svg" xmlns:xlink="http://www.w3.org/1999/xlink" width="76" height="76" viewBox="0 0 76 76">
  <defs>
    <clipPath id="a">
      <rect width="23.067" height="40.892" transform="translate(0 0)"></rect>
    </clipPath>
  </defs>
  <g transform="translate(20925 19174)">
    <circle cx="38" cy="38" r="38" transform="translate(-20925 -19174)" fill="#f5ff00"></circle>
    <g transform="translate(-2 109.999)">
      <g transform="translate(-0.001 -1)">
        <g transform="translate(-20897 -19265)" clip-path="url(#a)">
          <path d="M20.672,0A3.649,3.649,0,0,1,24.32,3.648V37.7a3.651,3.651,0,0,1-3.648,3.648H3.648A3.652,3.652,0,0,1,0,37.7V3.648A3.652,3.652,0,0,1,3.648,0ZM12.16,38.912a2.432,2.432,0,1,1,2.43-2.432,2.431,2.431,0,0,1-2.43,2.432M21.888,7.238H2.432V31.616H21.888ZM13.376,4.864a1.216,1.216,0,1,0,0-2.432H10.944a1.216,1.216,0,0,0,0,2.432Z" transform="translate(-0.625 -0.074)" fill-rule="evenodd"></path>
        </g>
        <g transform="translate(-20913 -19256)">
          <g transform="translate(44.41 0.003)">
            <g transform="translate(0 0)">
              <path d="M20,3.629a7.33,7.33,0,0,1,.008,10.364l2.179,2.179a10.407,10.407,0,0,0-.005-14.726L20,3.629" transform="translate(-20 2.424)"></path>
              <path d="M21.427,2.237a12.724,12.724,0,0,1,.005,17.995l2.233,2.236A15.891,15.891,0,0,0,23.665,0L21.427,2.237" transform="translate(-17.606 -0.001)"></path>
            </g>
          </g>
          <g transform="translate(0)">
            <path d="M5.1,1.447A10.4,10.4,0,0,0,5.095,16.17l2.179-2.179A7.333,7.333,0,0,1,7.279,3.626L5.1,1.447" transform="translate(3.431 2.427)"></path>
            <path d="M4.656,0a15.888,15.888,0,0,0-.005,22.469l2.233-2.236A12.731,12.731,0,0,1,6.889,2.238L4.656,0" transform="translate(0)"></path>
          </g>
        </g>
      </g>
    </g>
  </g>
</svg>
