<?xml version="1.0" encoding="UTF-8"?>
<!-- Generator: Adobe Illustrator 27.2.0, SVG Export Plug-In . SVG Version: 6.00 Build 0)  -->
<svg xmlns="http://www.w3.org/2000/svg" xmlns:xlink="http://www.w3.org/1999/xlink" version="1.1" id="Ebene_1" x="0px" y="0px" viewBox="0 0 122 122" style="enable-background:new 0 0 122 122;" xml:space="preserve">
<style type="text/css">
	.st0{clip-path:url(#SVGID_00000054232556436266741790000013612812164191269785_);}
	.st1{fill:#0000FF;}
</style>
<g>
	<defs>
		<rect id="SVGID_1_" width="122" height="122"></rect>
	</defs>
	<clipPath id="SVGID_00000061442217938988360020000009918633168682683563_">
		<use xlink:href="#SVGID_1_" style="overflow:visible;"></use>
	</clipPath>
	<g transform="translate(0 0)" style="clip-path:url(#SVGID_00000061442217938988360020000009918633168682683563_);">
		<path class="st1" d="M61,12.3c16.1,11.7,35,15.6,48.3,16.9c-3.6,36.7-26.5,65.6-48.3,81.5C39.2,94.8,16.3,65.9,12.7,29.2    C26,27.9,44.9,23.9,61,12.3 M61-1.5C44.8,14.1,20.5,19.3,1.4,19.3C1.4,64,28.9,103.2,61,123.5c32.1-20.3,59.6-59.5,59.6-104.2    C101.5,19.3,77.2,14.1,61-1.5 M81.6,40.2L57.8,63.5l-12-11.1l-6.7,6.5l18.7,17.5l30.4-29.8L81.6,40.2"></path>
	</g>
</g>
</svg>
