<?xml version="1.0" encoding="UTF-8"?>
<svg xmlns="http://www.w3.org/2000/svg" width="31.861" height="39.259" viewBox="0 0 31.861 39.259">
  <path id="Pfad_679" data-name="Pfad 679" d="M331.111,527.731a2.3,2.3,0,0,0-2.54-.612l-4.061,1.318a62.565,62.565,0,0,1-4.75-6.058l0,0a.294.294,0,0,1-.024-.03c-.008-.01-.013-.022-.022-.035l0,0a62,62,0,0,1-4.056-6.522l2.719-3.231a2.183,2.183,0,0,0,.334-2.539l-2.927-6.709a1.67,1.67,0,0,0-1.443-1.1c-1.125-.156-4.995,2.275-4.995,2.275-2.032,1.2-1.9,2.595-1.9,2.595-.375,8.327,6.853,17.745,7.39,18.547.743.983,6.938,10.776,15.009,13.436,0,0,1.285.63,3.159-.792,0,0,3.715-2.657,3.973-3.737a1.609,1.609,0,0,0-.526-1.713Z" transform="translate(-306.332 -501.11)" fill="none" stroke="#fff" stroke-linecap="square" stroke-linejoin="round" stroke-width="2.2"></path>
</svg>
