<?xml version="1.0" encoding="UTF-8"?>
<svg xmlns="http://www.w3.org/2000/svg" width="63.177" height="65.452" viewBox="0 0 63.177 65.452">
  <g transform="translate(0.717 -0.025)">
    <g transform="translate(0 0)">
      <path d="M11.3,10h25.81A6.4,6.4,0,0,1,41.3,11.579a6.949,6.949,0,0,1,2.238,3.916,49.108,49.108,0,0,1,.879,8.7,26.262,26.262,0,0,1-5.793,16.8A20.359,20.359,0,0,1,32.2,46.2a17.426,17.426,0,0,1-15.992,0,20.363,20.363,0,0,1-6.418-5.208A26.261,26.261,0,0,1,4,24.192a49.113,49.113,0,0,1,.879-8.7,6.958,6.958,0,0,1,2.24-3.914A6.393,6.393,0,0,1,11.3,10Zm12.9,34.14c8.937,0,16.208-8.948,16.208-19.947a45.5,45.5,0,0,0-.805-7.934A2.658,2.658,0,0,0,37.113,14H11.3a2.661,2.661,0,0,0-2.5,2.259A45.494,45.494,0,0,0,8,24.192C8,35.191,15.271,44.14,24.208,44.14Z" transform="translate(6.664 15.062)" fill="#fff"></path>
      <path d="M28.208,21.656H10a2,2,0,0,1-2-2V15.1a11.939,11.939,0,0,1,.866-4.57,10.266,10.266,0,0,1,2.421-3.551A11.231,11.231,0,0,1,19.1,4a11.231,11.231,0,0,1,7.817,2.983,10.266,10.266,0,0,1,2.421,3.551,11.939,11.939,0,0,1,.866,4.57v4.552A2,2,0,0,1,28.208,21.656ZM12,17.656H26.208V15.1a7,7,0,0,0-2.046-5.225A7.256,7.256,0,0,0,19.1,8a7.256,7.256,0,0,0-5.058,1.879A7,7,0,0,0,12,15.1Z" transform="translate(11.768 7.406)" fill="#fff"></path>
      <path d="M0,35a2,2,0,0,1-2-2V0A2,2,0,0,1,0-2,2,2,0,0,1,2,0V33A2,2,0,0,1,0,35Z" transform="translate(30.414 27.946)" fill="#fff"></path>
      <path d="M12.483,17a2,2,0,0,1-1.644-.858C7.12,10.79,7.047,5.008,10.635-.143a2,2,0,1,1,3.282,2.286A9.72,9.72,0,0,0,12,7.954a10.762,10.762,0,0,0,2.121,5.9A2,2,0,0,1,12.483,17Z" transform="translate(11.767 1.026)" fill="#fff"></path>
      <path d="M16.908,17a2,2,0,0,1-1.64-3.142,10.769,10.769,0,0,0,2.121-5.9,9.719,9.719,0,0,0-1.915-5.81A2,2,0,1,1,18.756-.143c3.587,5.15,3.514,10.931-.2,16.28A2,2,0,0,1,16.908,17Z" transform="translate(20.585 1.026)" fill="#fff"></path>
      <path d="M1,27.1A2,2,0,0,1-.94,24.619l2.276-9.1A2,2,0,0,1,3.276,14h9.1a2,2,0,0,1,0,4H4.838l-1.9,7.589A2,2,0,0,1,1,27.1Z" transform="translate(0.284 20.165)" fill="#fff"></path>
      <path d="M4,37.656a2,2,0,0,1-2-2v-9.1a2,2,0,0,1,.891-1.664l6.828-4.552a2,2,0,1,1,2.219,3.328L6,27.622v8.034A2,2,0,0,1,4,37.656Z" transform="translate(4.112 27.821)" fill="#fff"></path>
      <path d="M11.472,23.66a1.994,1.994,0,0,1-1.422-.594L2.578,15.51A2,2,0,0,1,2,14.1V5A2,2,0,1,1,6,5v8.282l6.894,6.972a2,2,0,0,1-1.422,3.406Z" transform="translate(4.112 6.13)" fill="#fff"></path>
      <path d="M33.378,27.1a2,2,0,0,1-1.939-1.515L29.542,18H22a2,2,0,0,1,0-4h9.1a2,2,0,0,1,1.94,1.515l2.276,9.1A2,2,0,0,1,33.378,27.1Z" transform="translate(27.079 20.165)" fill="#fff"></path>
      <path d="M27.828,37.656a2,2,0,0,1-2-2V27.622l-5.937-3.958a2,2,0,0,1,2.219-3.328l6.828,4.552a2,2,0,0,1,.891,1.664v9.1A2,2,0,0,1,27.828,37.656Z" transform="translate(25.803 27.821)" fill="#fff"></path>
      <path d="M20.717,23.66a2,2,0,0,1-1.422-3.406l6.894-6.972V5a2,2,0,0,1,4,0v9.1a2,2,0,0,1-.578,1.406l-7.472,7.556A1.994,1.994,0,0,1,20.717,23.66Z" transform="translate(25.442 6.13)" fill="#fff"></path>
    </g>
  </g>
</svg>
