<?xml version="1.0" encoding="UTF-8"?>
<svg xmlns="http://www.w3.org/2000/svg" width="142.227" height="147.602" viewBox="0 0 142.227 147.602">
  <g id="Gruppe_646" data-name="Gruppe 646" transform="translate(4.851 5.568)">
    <path id="Pfad_705" data-name="Pfad 705" d="M17.854,12a10.388,10.388,0,0,0-9.972,8.706A107.1,107.1,0,0,0,6,39.387c0,27.228,18.224,49.3,40.7,49.3s40.7-22.07,40.7-49.3a107.1,107.1,0,0,0-1.882-18.68A10.379,10.379,0,0,0,75.548,12Z" transform="translate(19.562 44.236)" fill="none" stroke="#0915f5" stroke-linecap="round" stroke-linejoin="round" stroke-width="8"></path>
    <path id="Pfad_706" data-name="Pfad 706" d="M50.9,26.449V36.674H10V26.449C10,13.745,19.156,6,30.449,6S50.9,13.745,50.9,26.449Z" transform="translate(35.814 19.562)" fill="none" stroke="#0915f5" stroke-linecap="round" stroke-linejoin="round" stroke-width="8"></path>
    <line id="Linie_59" data-name="Linie 59" y2="74.125" transform="translate(65.239 58.223)" fill="none" stroke="#0915f5" stroke-linecap="round" stroke-linejoin="round" stroke-width="8"></line>
    <path id="Pfad_707" data-name="Pfad 707" d="M15.113,1c-7.121,10.225-6.651,21.211.46,31.436" transform="translate(35.868 -1)" fill="none" stroke="#0915f5" stroke-linecap="round" stroke-linejoin="round" stroke-width="8"></path>
    <path id="Pfad_708" data-name="Pfad 708" d="M17.37,1c7.121,10.225,6.651,21.206-.46,31.436" transform="translate(64.175 -1)" fill="none" stroke="#0915f5" stroke-linecap="round" stroke-linejoin="round" stroke-width="8"></path>
    <path id="Pfad_709" data-name="Pfad 709" d="M1,36.449,6.112,16H26.562" transform="translate(-1 60.685)" fill="none" stroke="#0915f5" stroke-linecap="round" stroke-linejoin="round" stroke-width="8"></path>
    <path id="Pfad_710" data-name="Pfad 710" d="M4,52.674V32.225L19.337,22" transform="translate(11.337 85.359)" fill="none" stroke="#0915f5" stroke-linecap="round" stroke-linejoin="round" stroke-width="8"></path>
    <path id="Pfad_711" data-name="Pfad 711" d="M4,5V25.449L20.784,42.422" transform="translate(11.337 15.449)" fill="none" stroke="#0915f5" stroke-linecap="round" stroke-linejoin="round" stroke-width="8"></path>
    <path id="Pfad_712" data-name="Pfad 712" d="M47.562,36.449,42.449,16H22" transform="translate(84.964 60.685)" fill="none" stroke="#0915f5" stroke-linecap="round" stroke-linejoin="round" stroke-width="8"></path>
    <path id="Pfad_713" data-name="Pfad 713" d="M36.337,52.674V32.225L21,22" transform="translate(80.852 85.359)" fill="none" stroke="#0915f5" stroke-linecap="round" stroke-linejoin="round" stroke-width="8"></path>
    <path id="Pfad_714" data-name="Pfad 714" d="M37.5,5V25.449L20.717,42.422" transform="translate(79.688 15.449)" fill="none" stroke="#0915f5" stroke-linecap="round" stroke-linejoin="round" stroke-width="8"></path>
  </g>
</svg>
