<?xml version="1.0" encoding="UTF-8"?>
<svg xmlns="http://www.w3.org/2000/svg" width="145.424" height="145.657" viewBox="0 0 145.424 145.657">
  <g id="Gruppe_641" data-name="Gruppe 641" transform="translate(2.367 2.421)">
    <path id="Pfad_696" data-name="Pfad 696" d="M112.936,7.373h0a14.927,14.927,0,0,1,0,21.111L28.488,112.937A14.931,14.931,0,0,1,7.372,91.821L91.825,7.373A14.927,14.927,0,0,1,112.936,7.373Z" transform="translate(9.528 8.627)" fill="none" stroke="#0915f5" stroke-linecap="round" stroke-linejoin="round" stroke-width="8"></path>
    <line id="Linie_47" data-name="Linie 47" x2="50.224" y2="54.789" transform="translate(12.131 73.949)" fill="none" stroke="#0915f5" stroke-linecap="round" stroke-linejoin="round" stroke-width="8"></line>
    <line id="Linie_48" data-name="Linie 48" x2="54.789" y2="54.789" transform="translate(32.677 51.12)" fill="none" stroke="#0915f5" stroke-linecap="round" stroke-linejoin="round" stroke-width="8"></line>
    <line id="Linie_49" data-name="Linie 49" x2="57.072" y2="50.224" transform="translate(71.486 12.311)" fill="none" stroke="#0915f5" stroke-linecap="round" stroke-linejoin="round" stroke-width="8"></line>
    <line id="Linie_50" data-name="Linie 50" x2="54.789" y2="50.224" transform="translate(53.223 32.857)" fill="none" stroke="#0915f5" stroke-linecap="round" stroke-linejoin="round" stroke-width="8"></line>
    <line id="Linie_51" data-name="Linie 51" x1="6.849" y2="9.132" transform="translate(117.144 3.179)" fill="none" stroke="#0915f5" stroke-linecap="round" stroke-linejoin="round" stroke-width="8"></line>
    <line id="Linie_52" data-name="Linie 52" x1="9.132" y2="4.566" transform="translate(128.559 16.877)" fill="none" stroke="#0915f5" stroke-linecap="round" stroke-linejoin="round" stroke-width="8"></line>
    <line id="Linie_53" data-name="Linie 53" y1="4.566" x2="9.132" transform="translate(2.999 117.324)" fill="none" stroke="#0915f5" stroke-linecap="round" stroke-linejoin="round" stroke-width="8"></line>
    <line id="Linie_54" data-name="Linie 54" y1="9.132" x2="4.566" transform="translate(16.697 128.738)" fill="none" stroke="#0915f5" stroke-linecap="round" stroke-linejoin="round" stroke-width="8"></line>
  </g>
</svg>
