<?xml version="1.0" encoding="UTF-8"?>
<svg xmlns="http://www.w3.org/2000/svg" width="127.447" height="134.825" viewBox="0 0 127.447 134.825">
  <g id="Gruppe_648" data-name="Gruppe 648" transform="translate(4.026 5.657)">
    <line id="Linie_55" data-name="Linie 55" x2="10.538" y2="10.538" transform="translate(41.317)" fill="none" stroke="#0915f5" stroke-linecap="round" stroke-linejoin="round" stroke-width="8"></line>
    <line id="Linie_56" data-name="Linie 56" x1="10.538" y2="10.538" transform="translate(67.54)" fill="none" stroke="#0915f5" stroke-linecap="round" stroke-linejoin="round" stroke-width="8"></line>
    <ellipse id="Ellipse_23" data-name="Ellipse 23" cx="14.166" cy="13.154" rx="14.166" ry="13.154" transform="translate(44.433 9.82)" fill="none" stroke="#0915f5" stroke-linecap="round" stroke-linejoin="round" stroke-width="8"></ellipse>
    <path id="Pfad_697" data-name="Pfad 697" d="M26.408,37.765l-12.2-8.129V11.212L5,2" transform="translate(13.356 2.607)" fill="none" stroke="#0915f5" stroke-linecap="round" stroke-linejoin="round" stroke-width="8"></path>
    <path id="Pfad_698" data-name="Pfad 698" d="M24.817,13.582a14.174,14.174,0,0,1-11.874-6.07A37.215,37.215,0,0,0,11,19.387c0,12.564,6.186,22.75,13.817,22.75s13.817-10.186,13.817-22.75A37.086,37.086,0,0,0,36.687,7.512,14.159,14.159,0,0,1,24.817,13.582Z" transform="translate(34.878 24.505)" fill="none" stroke="#0915f5" stroke-linecap="round" stroke-linejoin="round" stroke-width="8"></path>
    <path id="Pfad_699" data-name="Pfad 699" d="M38.63,14.174c-2.529,5.159-6.158,8.415-10.206,8.415s-7.678-3.256-10.2-8.415C13.266,19.954,10,29.811,10,41.012A36.583,36.583,0,0,0,28.423,73.248,36.583,36.583,0,0,0,46.846,41.012C46.846,29.811,43.581,19.954,38.63,14.174Z" transform="translate(31.275 46.503)" fill="none" stroke="#0915f5" stroke-linecap="round" stroke-linejoin="round" stroke-width="8"></path>
    <path id="Pfad_700" data-name="Pfad 700" d="M47.057,15.947a48.579,48.579,0,0,1,.53-7.056A149.216,149.216,0,0,0,27.93,22.11C10.718,35.623-3.22,46.949,2.178,53.475S21.546,49.418,38.758,35.9c3.542-2.782,6.826-5.582,9.81-8.313A44.341,44.341,0,0,1,47.057,15.947Z" transform="translate(-1 27.453)" fill="none" stroke="#0915f5" stroke-linecap="round" stroke-linejoin="round" stroke-width="8"></path>
    <line id="Linie_57" data-name="Linie 57" y1="4.047" transform="translate(60.616 121.12)" fill="none" stroke="#0915f5" stroke-linecap="round" stroke-linejoin="round" stroke-width="8"></line>
    <path id="Pfad_701" data-name="Pfad 701" d="M7,54.331V35.908L21.476,18.143" transform="translate(20.541 60.814)" fill="none" stroke="#0915f5" stroke-linecap="round" stroke-linejoin="round" stroke-width="8"></path>
    <path id="Pfad_702" data-name="Pfad 702" d="M18.352,37.765l12.2-8.129V11.212L39.76,2" transform="translate(61.279 2.607)" fill="none" stroke="#0915f5" stroke-linecap="round" stroke-linejoin="round" stroke-width="8"></path>
    <path id="Pfad_703" data-name="Pfad 703" d="M32.333,54.331V35.908L17.857,18.143" transform="translate(59.521 60.814)" fill="none" stroke="#0915f5" stroke-linecap="round" stroke-linejoin="round" stroke-width="8"></path>
    <path id="Pfad_704" data-name="Pfad 704" d="M18.183,15.947a48.58,48.58,0,0,0-.53-7.056A149.216,149.216,0,0,1,37.311,22.11C54.523,35.623,68.46,46.949,63.062,53.475S43.694,49.418,26.482,35.9c-3.542-2.782-6.826-5.582-9.81-8.313A44.341,44.341,0,0,0,18.183,15.947Z" transform="translate(55.156 27.453)" fill="none" stroke="#0915f5" stroke-linecap="round" stroke-linejoin="round" stroke-width="8"></path>
    <line id="Linie_58" data-name="Linie 58" x2="36.335" transform="translate(41.531 92.116)" fill="none" stroke="#0915f5" stroke-linecap="round" stroke-linejoin="round" stroke-width="8"></line>
  </g>
</svg>
