<?xml version="1.0" encoding="UTF-8"?>
<svg xmlns="http://www.w3.org/2000/svg" width="140.166" height="130.363" viewBox="0 0 140.166 130.363">
  <g id="Gruppe_647" data-name="Gruppe 647" transform="translate(-116.169 -729.773)">
    <g id="Gruppe_642" data-name="Gruppe 642" transform="translate(120.169 733.773)">
      <path id="Pfad_693" data-name="Pfad 693" d="M82.333,46.689c-4.7-4.222-6.776-10.12-3.467-17.34A14.457,14.457,0,0,1,92.5,21.2c10.375.214,15.011,6.852,15.245,15.3.158,5.72,14.31,17.156,21.426,22.55a10.143,10.143,0,0,1,3.99,8.1v5.042A10.182,10.182,0,0,1,123,82.378H31.5C7.512,82.378,1,58.64,1,46.689,1,30.435,11.314,11,36.583,11c22.875,0,34.505,5.975,44.875,14.582" transform="translate(-1 39.984)" fill="none" stroke="#0915f5" stroke-linecap="round" stroke-linejoin="round" stroke-width="8"></path>
      <path id="Pfad_694" data-name="Pfad 694" d="M29.2,24.1A5.1,5.1,0,1,1,24.1,19a5.1,5.1,0,0,1,5.1,5.1" transform="translate(72.477 72.772)" fill="#0915f5"></path>
      <path id="Pfad_695" data-name="Pfad 695" d="M1,87.674C1,57.934,12.941,38.927,36.689,31.591c8.627-2.666,15.3-6.847,15.3-15.3A15.3,15.3,0,0,0,26.492,4.9" transform="translate(-1 -1)" fill="none" stroke="#0915f5" stroke-linecap="round" stroke-linejoin="round" stroke-width="8"></path>
    </g>
  </g>
</svg>
